<svg width="25" height="24" viewBox="0 0 25 24" fill="none" xmlns="http://www.w3.org/2000/svg">
<g clip-path="url(#clip0_2568_27267)">
<path d="M24.2663 12.2763C24.2663 11.4605 24.2001 10.6404 24.059 9.83789H12.7402V14.4589H19.222C18.953 15.9492 18.0888 17.2676 16.8233 18.1054V21.1037H20.6903C22.9611 19.0137 24.2663 15.9272 24.2663 12.2763Z" fill="#4285F4"/>
<path d="M12.7391 24.0013C15.9756 24.0013 18.705 22.9387 20.6936 21.1044L16.8266 18.106C15.7507 18.838 14.3618 19.2525 12.7435 19.2525C9.61291 19.2525 6.95849 17.1404 6.00607 14.3008H2.01562V17.3917C4.05274 21.4439 8.20192 24.0013 12.7391 24.0013Z" fill="#34A853"/>
<path d="M6.00277 14.3007C5.50011 12.8103 5.50011 11.1965 6.00277 9.70618V6.61523H2.01674C0.314734 10.006 0.314734 14.0009 2.01674 17.3916L6.00277 14.3007Z" fill="#FBBC04"/>
<path d="M12.7391 4.74966C14.4499 4.7232 16.1034 5.36697 17.3425 6.54867L20.7685 3.12262C18.5991 1.0855 15.7198 -0.034466 12.7391 0.000808666C8.20192 0.000808666 4.05274 2.55822 2.01562 6.61481L6.00166 9.70575C6.94967 6.86173 9.6085 4.74966 12.7391 4.74966Z" fill="#EA4335"/>
</g>
<defs>
<clipPath id="clip0_2568_27267">
<rect width="24" height="24" fill="white" transform="translate(0.5)"/>
</clipPath>
</defs>
</svg>
